<svg xmlns="http://www.w3.org/2000/svg" xmlns:xlink="http://www.w3.org/1999/xlink" version="1.1" width="1251px" height="526px" viewBox="-0.5 -0.5 1251 526"><defs><clipPath id="mx-clip-1070-30-30-30-0"><rect x="1070" y="30" width="30" height="30"/></clipPath><clipPath id="mx-clip-1106-30-144-30-0"><rect x="1106" y="30" width="144" height="30"/></clipPath><clipPath id="mx-clip-1106-60-144-30-0"><rect x="1106" y="60" width="144" height="30"/></clipPath><clipPath id="mx-clip-930-210-30-30-0"><rect x="930" y="210" width="30" height="30"/></clipPath><clipPath id="mx-clip-966-210-144-30-0"><rect x="966" y="210" width="144" height="30"/></clipPath><clipPath id="mx-clip-966-240-144-30-0"><rect x="966" y="240" width="144" height="30"/></clipPath><clipPath id="mx-clip-840-30-30-30-0"><rect x="840" y="30" width="30" height="30"/></clipPath><clipPath id="mx-clip-876-30-144-30-0"><rect x="876" y="30" width="144" height="30"/></clipPath><clipPath id="mx-clip-840-60-30-30-0"><rect x="840" y="60" width="30" height="30"/></clipPath><clipPath id="mx-clip-876-60-144-30-0"><rect x="876" y="60" width="144" height="30"/></clipPath><clipPath id="mx-clip-0-60-30-30-0"><rect x="0" y="60" width="30" height="30"/></clipPath><clipPath id="mx-clip-36-60-144-30-0"><rect x="36" y="60" width="144" height="30"/></clipPath><clipPath id="mx-clip-36-90-144-30-0"><rect x="36" y="90" width="144" height="30"/></clipPath><clipPath id="mx-clip-36-120-144-30-0"><rect x="36" y="120" width="144" height="30"/></clipPath><clipPath id="mx-clip-36-150-144-30-0"><rect x="36" y="150" width="144" height="30"/></clipPath><clipPath id="mx-clip-36-180-144-30-0"><rect x="36" y="180" width="144" height="30"/></clipPath><clipPath id="mx-clip-260-50-30-30-0"><rect x="260" y="50" width="30" height="30"/></clipPath><clipPath id="mx-clip-296-50-144-30-0"><rect x="296" y="50" width="144" height="30"/></clipPath><clipPath id="mx-clip-260-80-30-30-0"><rect x="260" y="80" width="30" height="30"/></clipPath><clipPath id="mx-clip-296-80-144-30-0"><rect x="296" y="80" width="144" height="30"/></clipPath><clipPath id="mx-clip-570-73-30-30-0"><rect x="570" y="73" width="30" height="30"/></clipPath><clipPath id="mx-clip-606-73-144-30-0"><rect x="606" y="73" width="144" height="30"/></clipPath><clipPath id="mx-clip-606-103-144-30-0"><rect x="606" y="103" width="144" height="30"/></clipPath><clipPath id="mx-clip-606-133-144-30-0"><rect x="606" y="133" width="144" height="30"/></clipPath><clipPath id="mx-clip-606-163-144-30-0"><rect x="606" y="163" width="144" height="30"/></clipPath><clipPath id="mx-clip-606-193-144-30-0"><rect x="606" y="193" width="144" height="30"/></clipPath><clipPath id="mx-clip-606-223-144-30-0"><rect x="606" y="223" width="144" height="30"/></clipPath><clipPath id="mx-clip-606-253-144-30-0"><rect x="606" y="253" width="144" height="30"/></clipPath><clipPath id="mx-clip-606-283-144-30-0"><rect x="606" y="283" width="144" height="30"/></clipPath><clipPath id="mx-clip-606-313-144-30-0"><rect x="606" y="313" width="144" height="30"/></clipPath><clipPath id="mx-clip-260-220-30-30-0"><rect x="260" y="220" width="30" height="30"/></clipPath><clipPath id="mx-clip-296-220-144-30-0"><rect x="296" y="220" width="144" height="30"/></clipPath><clipPath id="mx-clip-296-250-144-30-0"><rect x="296" y="250" width="144" height="30"/></clipPath><clipPath id="mx-clip-296-280-144-30-0"><rect x="296" y="280" width="144" height="30"/></clipPath><clipPath id="mx-clip-930-375-30-30-0"><rect x="930" y="375" width="30" height="30"/></clipPath><clipPath id="mx-clip-966-375-144-30-0"><rect x="966" y="375" width="144" height="30"/></clipPath><clipPath id="mx-clip-966-405-144-30-0"><rect x="966" y="405" width="144" height="30"/></clipPath><clipPath id="mx-clip-966-435-144-30-0"><rect x="966" y="435" width="144" height="30"/></clipPath><clipPath id="mx-clip-966-465-144-30-0"><rect x="966" y="465" width="144" height="30"/></clipPath><clipPath id="mx-clip-966-495-144-30-0"><rect x="966" y="495" width="144" height="30"/></clipPath></defs><g><path d="M 1070 30 L 1070 0 L 1250 0 L 1250 30" fill="rgb(255, 255, 255)" stroke="rgb(0, 0, 0)" stroke-miterlimit="10" pointer-events="all"/><path d="M 1070 30 L 1070 90 L 1250 90 L 1250 30" fill="none" stroke="rgb(0, 0, 0)" stroke-miterlimit="10" pointer-events="none"/><path d="M 1070 30 L 1250 30" fill="none" stroke="rgb(0, 0, 0)" stroke-miterlimit="10" pointer-events="none"/><path d="M 1100 30 L 1100 60 L 1100 90" fill="none" stroke="rgb(0, 0, 0)" stroke-miterlimit="10" pointer-events="none"/><g fill="rgb(0, 0, 0)" font-family="Helvetica" font-weight="bold" pointer-events="none" text-anchor="middle" font-size="12px"><text x="1159.5" y="19.5">tags</text></g><path d="M 1070 30 M 1250 30 M 1250 60 L 1070 60" fill="none" stroke="rgb(0, 0, 0)" stroke-linecap="square" stroke-miterlimit="10" pointer-events="none"/><path d="M 1070 30 M 1100 30 M 1100 60 M 1070 60" fill="none" stroke="rgb(0, 0, 0)" stroke-linecap="square" stroke-miterlimit="10" pointer-events="none"/><g fill="rgb(0, 0, 0)" font-family="Helvetica" font-weight="bold" pointer-events="none" clip-path="url(#mx-clip-1070-30-30-30-0)" text-anchor="middle" font-size="12px"><text x="1084.5" y="49.5">PK</text></g><path d="M 1100 30 M 1250 30 M 1250 60 M 1100 60" fill="none" stroke="rgb(0, 0, 0)" stroke-linecap="square" stroke-miterlimit="10" pointer-events="none"/><g fill="rgb(0, 0, 0)" font-family="Helvetica" font-weight="bold" text-decoration="underline" pointer-events="none" clip-path="url(#mx-clip-1106-30-144-30-0)" font-size="12px"><text x="1107.5" y="49.5">id</text></g><path d="M 1070 60 M 1100 60 M 1100 90 M 1070 90" fill="none" stroke="rgb(0, 0, 0)" stroke-linecap="square" stroke-miterlimit="10" pointer-events="none"/><path d="M 1100 60 M 1250 60 M 1250 90 M 1100 90" fill="none" stroke="rgb(0, 0, 0)" stroke-linecap="square" stroke-miterlimit="10" pointer-events="none"/><g fill="rgb(0, 0, 0)" font-family="Helvetica" pointer-events="none" clip-path="url(#mx-clip-1106-60-144-30-0)" font-size="12px"><text x="1107.5" y="79.5">name</text></g><path d="M 930 210 L 930 180 L 1110 180 L 1110 210" fill="rgb(255, 255, 255)" stroke="rgb(0, 0, 0)" stroke-miterlimit="10" pointer-events="none"/><path d="M 930 210 L 930 270 L 1110 270 L 1110 210" fill="none" stroke="rgb(0, 0, 0)" stroke-miterlimit="10" pointer-events="none"/><path d="M 930 210 L 1110 210" fill="none" stroke="rgb(0, 0, 0)" stroke-miterlimit="10" pointer-events="none"/><path d="M 960 210 L 960 240 L 960 270" fill="none" stroke="rgb(0, 0, 0)" stroke-miterlimit="10" pointer-events="none"/><g fill="rgb(0, 0, 0)" font-family="Helvetica" font-weight="bold" pointer-events="none" text-anchor="middle" font-size="12px"><text x="1019.5" y="199.5">content_types</text></g><path d="M 930 210 M 1110 210 M 1110 240 L 930 240" fill="none" stroke="rgb(0, 0, 0)" stroke-linecap="square" stroke-miterlimit="10" pointer-events="none"/><path d="M 930 210 M 960 210 M 960 240 M 930 240" fill="none" stroke="rgb(0, 0, 0)" stroke-linecap="square" stroke-miterlimit="10" pointer-events="none"/><g fill="rgb(0, 0, 0)" font-family="Helvetica" font-weight="bold" pointer-events="none" clip-path="url(#mx-clip-930-210-30-30-0)" text-anchor="middle" font-size="12px"><text x="944.5" y="229.5">PK</text></g><path d="M 960 210 M 1110 210 M 1110 240 M 960 240" fill="none" stroke="rgb(0, 0, 0)" stroke-linecap="square" stroke-miterlimit="10" pointer-events="none"/><g fill="rgb(0, 0, 0)" font-family="Helvetica" font-weight="bold" text-decoration="underline" pointer-events="none" clip-path="url(#mx-clip-966-210-144-30-0)" font-size="12px"><text x="967.5" y="229.5">id</text></g><path d="M 930 240 M 960 240 M 960 270 M 930 270" fill="none" stroke="rgb(0, 0, 0)" stroke-linecap="square" stroke-miterlimit="10" pointer-events="none"/><path d="M 960 240 M 1110 240 M 1110 270 M 960 270" fill="none" stroke="rgb(0, 0, 0)" stroke-linecap="square" stroke-miterlimit="10" pointer-events="none"/><g fill="rgb(0, 0, 0)" font-family="Helvetica" pointer-events="none" clip-path="url(#mx-clip-966-240-144-30-0)" font-size="12px"><text x="967.5" y="259.5">name</text></g><path d="M 840 30 L 840 0 L 1020 0 L 1020 30" fill="rgb(255, 255, 255)" stroke="rgb(0, 0, 0)" stroke-miterlimit="10" pointer-events="none"/><path d="M 840 30 L 840 90 L 1020 90 L 1020 30" fill="none" stroke="rgb(0, 0, 0)" stroke-miterlimit="10" pointer-events="none"/><path d="M 840 30 L 1020 30" fill="none" stroke="rgb(0, 0, 0)" stroke-miterlimit="10" pointer-events="none"/><path d="M 870 30 L 870 60 L 870 90" fill="none" stroke="rgb(0, 0, 0)" stroke-miterlimit="10" pointer-events="none"/><g fill="rgb(0, 0, 0)" font-family="Helvetica" font-weight="bold" pointer-events="none" text-anchor="middle" font-size="12px"><text x="929.5" y="19.5">files_tags</text></g><path d="M 840 30 M 870 30 M 870 60 M 840 60" fill="none" stroke="rgb(0, 0, 0)" stroke-linecap="square" stroke-miterlimit="10" pointer-events="none"/><g fill="rgb(0, 0, 0)" font-family="Helvetica" font-weight="bold" pointer-events="none" clip-path="url(#mx-clip-840-30-30-30-0)" text-anchor="middle" font-size="12px"><text x="854.5" y="49.5">PK</text></g><path d="M 870 30 M 1020 30 M 1020 60 M 870 60" fill="none" stroke="rgb(0, 0, 0)" stroke-linecap="square" stroke-miterlimit="10" pointer-events="none"/><g fill="rgb(0, 0, 0)" font-family="Helvetica" font-weight="bold" text-decoration="underline" pointer-events="none" clip-path="url(#mx-clip-876-30-144-30-0)" font-size="12px"><text x="877.5" y="49.5">file_id</text></g><path d="M 840 60 M 1020 60 M 1020 90 L 840 90" fill="none" stroke="rgb(0, 0, 0)" stroke-linecap="square" stroke-miterlimit="10" pointer-events="none"/><path d="M 840 60 M 870 60 M 870 90 M 840 90" fill="none" stroke="rgb(0, 0, 0)" stroke-linecap="square" stroke-miterlimit="10" pointer-events="none"/><g fill="rgb(0, 0, 0)" font-family="Helvetica" font-weight="bold" pointer-events="none" clip-path="url(#mx-clip-840-60-30-30-0)" text-anchor="middle" font-size="12px"><text x="854.5" y="79.5">PK</text></g><path d="M 870 60 M 1020 60 M 1020 90 M 870 90" fill="none" stroke="rgb(0, 0, 0)" stroke-linecap="square" stroke-miterlimit="10" pointer-events="none"/><g fill="rgb(0, 0, 0)" font-family="Helvetica" font-weight="bold" text-decoration="underline" pointer-events="none" clip-path="url(#mx-clip-876-60-144-30-0)" font-size="12px"><text x="877.5" y="79.5">tag_id</text></g><path d="M 0 60 L 0 30 L 180 30 L 180 60" fill="rgb(255, 255, 255)" stroke="rgb(0, 0, 0)" stroke-miterlimit="10" pointer-events="none"/><path d="M 0 60 L 0 210 L 180 210 L 180 60" fill="none" stroke="rgb(0, 0, 0)" stroke-miterlimit="10" pointer-events="none"/><path d="M 0 60 L 180 60" fill="none" stroke="rgb(0, 0, 0)" stroke-miterlimit="10" pointer-events="none"/><path d="M 30 60 L 30 90 L 30 120 L 30 150 L 30 180 L 30 210" fill="none" stroke="rgb(0, 0, 0)" stroke-miterlimit="10" pointer-events="none"/><g fill="rgb(0, 0, 0)" font-family="Helvetica" font-weight="bold" pointer-events="none" text-anchor="middle" font-size="12px"><text x="89.5" y="49.5">comments</text></g><path d="M 0 60 M 180 60 M 180 90 L 0 90" fill="none" stroke="rgb(0, 0, 0)" stroke-linecap="square" stroke-miterlimit="10" pointer-events="none"/><path d="M 0 60 M 30 60 M 30 90 M 0 90" fill="none" stroke="rgb(0, 0, 0)" stroke-linecap="square" stroke-miterlimit="10" pointer-events="none"/><g fill="rgb(0, 0, 0)" font-family="Helvetica" font-weight="bold" pointer-events="none" clip-path="url(#mx-clip-0-60-30-30-0)" text-anchor="middle" font-size="12px"><text x="14.5" y="79.5">PK</text></g><path d="M 30 60 M 180 60 M 180 90 M 30 90" fill="none" stroke="rgb(0, 0, 0)" stroke-linecap="square" stroke-miterlimit="10" pointer-events="none"/><g fill="rgb(0, 0, 0)" font-family="Helvetica" font-weight="bold" text-decoration="underline" pointer-events="none" clip-path="url(#mx-clip-36-60-144-30-0)" font-size="12px"><text x="37.5" y="79.5">id</text></g><path d="M 0 90 M 30 90 M 30 120 M 0 120" fill="none" stroke="rgb(0, 0, 0)" stroke-linecap="square" stroke-miterlimit="10" pointer-events="none"/><path d="M 30 90 M 180 90 M 180 120 M 30 120" fill="none" stroke="rgb(0, 0, 0)" stroke-linecap="square" stroke-miterlimit="10" pointer-events="none"/><g fill="rgb(0, 0, 0)" font-family="Helvetica" pointer-events="none" clip-path="url(#mx-clip-36-90-144-30-0)" font-size="12px"><text x="37.5" y="109.5">parent_id</text></g><path d="M 0 120 M 30 120 M 30 150 M 0 150" fill="none" stroke="rgb(0, 0, 0)" stroke-linecap="square" stroke-miterlimit="10" pointer-events="none"/><path d="M 30 120 M 180 120 M 180 150 M 30 150" fill="none" stroke="rgb(0, 0, 0)" stroke-linecap="square" stroke-miterlimit="10" pointer-events="none"/><g fill="rgb(0, 0, 0)" font-family="Helvetica" pointer-events="none" clip-path="url(#mx-clip-36-120-144-30-0)" font-size="12px"><text x="37.5" y="139.5">owner_id</text></g><path d="M 0 150 M 30 150 M 30 180 M 0 180" fill="none" stroke="rgb(0, 0, 0)" stroke-linecap="square" stroke-miterlimit="10" pointer-events="none"/><path d="M 30 150 M 180 150 M 180 180 M 30 180" fill="none" stroke="rgb(0, 0, 0)" stroke-linecap="square" stroke-miterlimit="10" pointer-events="none"/><g fill="rgb(0, 0, 0)" font-family="Helvetica" pointer-events="none" clip-path="url(#mx-clip-36-150-144-30-0)" font-size="12px"><text x="37.5" y="169.5">text</text></g><path d="M 0 180 M 30 180 M 30 210 M 0 210" fill="none" stroke="rgb(0, 0, 0)" stroke-linecap="square" stroke-miterlimit="10" pointer-events="none"/><path d="M 30 180 M 180 180 M 180 210 M 30 210" fill="none" stroke="rgb(0, 0, 0)" stroke-linecap="square" stroke-miterlimit="10" pointer-events="none"/><g fill="rgb(0, 0, 0)" font-family="Helvetica" pointer-events="none" clip-path="url(#mx-clip-36-180-144-30-0)" font-size="12px"><text x="37.5" y="199.5">created_at</text></g><path d="M 260 50 L 260 20 L 440 20 L 440 50" fill="rgb(255, 255, 255)" stroke="rgb(0, 0, 0)" stroke-miterlimit="10" pointer-events="none"/><path d="M 260 50 L 260 110 L 440 110 L 440 50" fill="none" stroke="rgb(0, 0, 0)" stroke-miterlimit="10" pointer-events="none"/><path d="M 260 50 L 440 50" fill="none" stroke="rgb(0, 0, 0)" stroke-miterlimit="10" pointer-events="none"/><path d="M 290 50 L 290 80 L 290 110" fill="none" stroke="rgb(0, 0, 0)" stroke-miterlimit="10" pointer-events="none"/><g fill="rgb(0, 0, 0)" font-family="Helvetica" font-weight="bold" pointer-events="none" text-anchor="middle" font-size="12px"><text x="349.5" y="39.5">comments_files</text></g><path d="M 260 50 M 290 50 M 290 80 M 260 80" fill="none" stroke="rgb(0, 0, 0)" stroke-linecap="square" stroke-miterlimit="10" pointer-events="none"/><g fill="rgb(0, 0, 0)" font-family="Helvetica" font-weight="bold" pointer-events="none" clip-path="url(#mx-clip-260-50-30-30-0)" text-anchor="middle" font-size="12px"><text x="274.5" y="69.5">PK</text></g><path d="M 290 50 M 440 50 M 440 80 M 290 80" fill="none" stroke="rgb(0, 0, 0)" stroke-linecap="square" stroke-miterlimit="10" pointer-events="none"/><g fill="rgb(0, 0, 0)" font-family="Helvetica" font-weight="bold" text-decoration="underline" pointer-events="none" clip-path="url(#mx-clip-296-50-144-30-0)" font-size="12px"><text x="297.5" y="69.5">comment_id</text></g><path d="M 260 80 M 440 80 M 440 110 L 260 110" fill="none" stroke="rgb(0, 0, 0)" stroke-linecap="square" stroke-miterlimit="10" pointer-events="none"/><path d="M 260 80 M 290 80 M 290 110 M 260 110" fill="none" stroke="rgb(0, 0, 0)" stroke-linecap="square" stroke-miterlimit="10" pointer-events="none"/><g fill="rgb(0, 0, 0)" font-family="Helvetica" font-weight="bold" pointer-events="none" clip-path="url(#mx-clip-260-80-30-30-0)" text-anchor="middle" font-size="12px"><text x="274.5" y="99.5">PK</text></g><path d="M 290 80 M 440 80 M 440 110 M 290 110" fill="none" stroke="rgb(0, 0, 0)" stroke-linecap="square" stroke-miterlimit="10" pointer-events="none"/><g fill="rgb(0, 0, 0)" font-family="Helvetica" font-weight="bold" text-decoration="underline" pointer-events="none" clip-path="url(#mx-clip-296-80-144-30-0)" font-size="12px"><text x="297.5" y="99.5">file_id</text></g><path d="M 570 73 L 570 30 L 750 30 L 750 73" fill="rgb(255, 255, 255)" stroke="rgb(0, 0, 0)" stroke-miterlimit="10" pointer-events="none"/><path d="M 570 73 L 570 345 L 750 345 L 750 73" fill="none" stroke="rgb(0, 0, 0)" stroke-miterlimit="10" pointer-events="none"/><path d="M 570 73 L 750 73" fill="none" stroke="rgb(0, 0, 0)" stroke-miterlimit="10" pointer-events="none"/><path d="M 600 73 L 600 103 L 600 133 L 600 163 L 600 193 L 600 223 L 600 253 L 600 283 L 600 313 L 600 343" fill="none" stroke="rgb(0, 0, 0)" stroke-miterlimit="10" pointer-events="none"/><g fill="rgb(0, 0, 0)" font-family="Helvetica" font-weight="bold" pointer-events="none" text-anchor="middle" font-size="12px"><text x="659.5" y="56">files</text></g><path d="M 570 73 M 750 73 M 750 103 L 570 103" fill="none" stroke="rgb(0, 0, 0)" stroke-linecap="square" stroke-miterlimit="10" pointer-events="none"/><path d="M 570 73 M 600 73 M 600 103 M 570 103" fill="none" stroke="rgb(0, 0, 0)" stroke-linecap="square" stroke-miterlimit="10" pointer-events="none"/><g fill="rgb(0, 0, 0)" font-family="Helvetica" font-weight="bold" pointer-events="none" clip-path="url(#mx-clip-570-73-30-30-0)" text-anchor="middle" font-size="12px"><text x="584.5" y="92.5">PK</text></g><path d="M 600 73 M 750 73 M 750 103 M 600 103" fill="none" stroke="rgb(0, 0, 0)" stroke-linecap="square" stroke-miterlimit="10" pointer-events="none"/><g fill="rgb(0, 0, 0)" font-family="Helvetica" font-weight="bold" text-decoration="underline" pointer-events="none" clip-path="url(#mx-clip-606-73-144-30-0)" font-size="12px"><text x="607.5" y="92.5">id</text></g><path d="M 570 103 M 600 103 M 600 133 M 570 133" fill="none" stroke="rgb(0, 0, 0)" stroke-linecap="square" stroke-miterlimit="10" pointer-events="none"/><path d="M 600 103 M 750 103 M 750 133 M 600 133" fill="none" stroke="rgb(0, 0, 0)" stroke-linecap="square" stroke-miterlimit="10" pointer-events="none"/><g fill="rgb(0, 0, 0)" font-family="Helvetica" pointer-events="none" clip-path="url(#mx-clip-606-103-144-30-0)" font-size="12px"><text x="607.5" y="122.5">name</text></g><path d="M 570 133 M 600 133 M 600 163 M 570 163" fill="none" stroke="rgb(0, 0, 0)" stroke-linecap="square" stroke-miterlimit="10" pointer-events="none"/><path d="M 600 133 M 750 133 M 750 163 M 600 163" fill="none" stroke="rgb(0, 0, 0)" stroke-linecap="square" stroke-miterlimit="10" pointer-events="none"/><g fill="rgb(0, 0, 0)" font-family="Helvetica" pointer-events="none" clip-path="url(#mx-clip-606-133-144-30-0)" font-size="12px"><text x="607.5" y="152.5">title</text></g><path d="M 570 163 M 600 163 M 600 193 M 570 193" fill="none" stroke="rgb(0, 0, 0)" stroke-linecap="square" stroke-miterlimit="10" pointer-events="none"/><path d="M 600 163 M 750 163 M 750 193 M 600 193" fill="none" stroke="rgb(0, 0, 0)" stroke-linecap="square" stroke-miterlimit="10" pointer-events="none"/><g fill="rgb(0, 0, 0)" font-family="Helvetica" pointer-events="none" clip-path="url(#mx-clip-606-163-144-30-0)" font-size="12px"><text x="607.5" y="182.5">description</text></g><path d="M 570 193 M 600 193 M 600 223 M 570 223" fill="none" stroke="rgb(0, 0, 0)" stroke-linecap="square" stroke-miterlimit="10" pointer-events="none"/><path d="M 600 193 M 750 193 M 750 223 M 600 223" fill="none" stroke="rgb(0, 0, 0)" stroke-linecap="square" stroke-miterlimit="10" pointer-events="none"/><g fill="rgb(0, 0, 0)" font-family="Helvetica" pointer-events="none" clip-path="url(#mx-clip-606-193-144-30-0)" font-size="12px"><text x="607.5" y="212.5">size</text></g><path d="M 570 223 M 600 223 M 600 253 M 570 253" fill="none" stroke="rgb(0, 0, 0)" stroke-linecap="square" stroke-miterlimit="10" pointer-events="none"/><path d="M 600 223 M 750 223 M 750 253 M 600 253" fill="none" stroke="rgb(0, 0, 0)" stroke-linecap="square" stroke-miterlimit="10" pointer-events="none"/><g fill="rgb(0, 0, 0)" font-family="Helvetica" pointer-events="none" clip-path="url(#mx-clip-606-223-144-30-0)" font-size="12px"><text x="607.5" y="242.5">owner_id</text></g><path d="M 570 253 M 600 253 M 600 283 M 570 283" fill="none" stroke="rgb(0, 0, 0)" stroke-linecap="square" stroke-miterlimit="10" pointer-events="none"/><path d="M 600 253 M 750 253 M 750 283 M 600 283" fill="none" stroke="rgb(0, 0, 0)" stroke-linecap="square" stroke-miterlimit="10" pointer-events="none"/><g fill="rgb(0, 0, 0)" font-family="Helvetica" pointer-events="none" clip-path="url(#mx-clip-606-253-144-30-0)" font-size="12px"><text x="607.5" y="272.5">created_at</text></g><path d="M 570 283 M 600 283 M 600 313 M 570 313" fill="none" stroke="rgb(0, 0, 0)" stroke-linecap="square" stroke-miterlimit="10" pointer-events="none"/><path d="M 600 283 M 750 283 M 750 313 M 600 313" fill="none" stroke="rgb(0, 0, 0)" stroke-linecap="square" stroke-miterlimit="10" pointer-events="none"/><g fill="rgb(0, 0, 0)" font-family="Helvetica" pointer-events="none" clip-path="url(#mx-clip-606-283-144-30-0)" font-size="12px"><text x="607.5" y="302.5">content_type_id</text></g><path d="M 570 313 M 600 313 M 600 343 M 570 343" fill="none" stroke="rgb(0, 0, 0)" stroke-linecap="square" stroke-miterlimit="10" pointer-events="none"/><path d="M 600 313 M 750 313 M 750 343 M 600 343" fill="none" stroke="rgb(0, 0, 0)" stroke-linecap="square" stroke-miterlimit="10" pointer-events="none"/><g fill="rgb(0, 0, 0)" font-family="Helvetica" pointer-events="none" clip-path="url(#mx-clip-606-313-144-30-0)" font-size="12px"><text x="607.5" y="332.5">category_id</text></g><path d="M 260 220 L 260 190 L 440 190 L 440 220" fill="rgb(255, 255, 255)" stroke="rgb(0, 0, 0)" stroke-miterlimit="10" pointer-events="none"/><path d="M 260 220 L 260 310 L 440 310 L 440 220" fill="none" stroke="rgb(0, 0, 0)" stroke-miterlimit="10" pointer-events="none"/><path d="M 260 220 L 440 220" fill="none" stroke="rgb(0, 0, 0)" stroke-miterlimit="10" pointer-events="none"/><path d="M 290 220 L 290 250 L 290 280 L 290 310" fill="none" stroke="rgb(0, 0, 0)" stroke-miterlimit="10" pointer-events="none"/><g fill="rgb(0, 0, 0)" font-family="Helvetica" font-weight="bold" pointer-events="none" text-anchor="middle" font-size="12px"><text x="349.5" y="209.5">users</text></g><path d="M 260 220 M 440 220 M 440 250 L 260 250" fill="none" stroke="rgb(0, 0, 0)" stroke-linecap="square" stroke-miterlimit="10" pointer-events="none"/><path d="M 260 220 M 290 220 M 290 250 M 260 250" fill="none" stroke="rgb(0, 0, 0)" stroke-linecap="square" stroke-miterlimit="10" pointer-events="none"/><g fill="rgb(0, 0, 0)" font-family="Helvetica" font-weight="bold" pointer-events="none" clip-path="url(#mx-clip-260-220-30-30-0)" text-anchor="middle" font-size="12px"><text x="274.5" y="239.5">PK</text></g><path d="M 290 220 M 440 220 M 440 250 M 290 250" fill="none" stroke="rgb(0, 0, 0)" stroke-linecap="square" stroke-miterlimit="10" pointer-events="none"/><g fill="rgb(0, 0, 0)" font-family="Helvetica" font-weight="bold" text-decoration="underline" pointer-events="none" clip-path="url(#mx-clip-296-220-144-30-0)" font-size="12px"><text x="297.5" y="239.5">id</text></g><path d="M 260 250 M 290 250 M 290 280 M 260 280" fill="none" stroke="rgb(0, 0, 0)" stroke-linecap="square" stroke-miterlimit="10" pointer-events="none"/><path d="M 290 250 M 440 250 M 440 280 M 290 280" fill="none" stroke="rgb(0, 0, 0)" stroke-linecap="square" stroke-miterlimit="10" pointer-events="none"/><g fill="rgb(0, 0, 0)" font-family="Helvetica" pointer-events="none" clip-path="url(#mx-clip-296-250-144-30-0)" font-size="12px"><text x="297.5" y="269.5">name</text></g><path d="M 260 280 M 290 280 M 290 310 M 260 310" fill="none" stroke="rgb(0, 0, 0)" stroke-linecap="square" stroke-miterlimit="10" pointer-events="none"/><path d="M 290 280 M 440 280 M 440 310 M 290 310" fill="none" stroke="rgb(0, 0, 0)" stroke-linecap="square" stroke-miterlimit="10" pointer-events="none"/><g fill="rgb(0, 0, 0)" font-family="Helvetica" pointer-events="none" clip-path="url(#mx-clip-296-280-144-30-0)" font-size="12px"><text x="297.5" y="299.5">email</text></g><path d="M 930 375 L 930 345 L 1110 345 L 1110 375" fill="rgb(255, 255, 255)" stroke="rgb(0, 0, 0)" stroke-miterlimit="10" pointer-events="none"/><path d="M 930 375 L 930 525 L 1110 525 L 1110 375" fill="none" stroke="rgb(0, 0, 0)" stroke-miterlimit="10" pointer-events="none"/><path d="M 930 375 L 1110 375" fill="none" stroke="rgb(0, 0, 0)" stroke-miterlimit="10" pointer-events="none"/><path d="M 960 375 L 960 405 L 960 435 L 960 465 L 960 495 L 960 525" fill="none" stroke="rgb(0, 0, 0)" stroke-miterlimit="10" pointer-events="none"/><g fill="rgb(0, 0, 0)" font-family="Helvetica" font-weight="bold" pointer-events="none" text-anchor="middle" font-size="12px"><text x="1019.5" y="364.5">categories</text></g><path d="M 930 375 M 1110 375 M 1110 405 L 930 405" fill="none" stroke="rgb(0, 0, 0)" stroke-linecap="square" stroke-miterlimit="10" pointer-events="none"/><path d="M 930 375 M 960 375 M 960 405 M 930 405" fill="none" stroke="rgb(0, 0, 0)" stroke-linecap="square" stroke-miterlimit="10" pointer-events="none"/><g fill="rgb(0, 0, 0)" font-family="Helvetica" font-weight="bold" pointer-events="none" clip-path="url(#mx-clip-930-375-30-30-0)" text-anchor="middle" font-size="12px"><text x="944.5" y="394.5">PK</text></g><path d="M 960 375 M 1110 375 M 1110 405 M 960 405" fill="none" stroke="rgb(0, 0, 0)" stroke-linecap="square" stroke-miterlimit="10" pointer-events="none"/><g fill="rgb(0, 0, 0)" font-family="Helvetica" font-weight="bold" text-decoration="underline" pointer-events="none" clip-path="url(#mx-clip-966-375-144-30-0)" font-size="12px"><text x="967.5" y="394.5">id</text></g><path d="M 930 405 M 960 405 M 960 435 M 930 435" fill="none" stroke="rgb(0, 0, 0)" stroke-linecap="square" stroke-miterlimit="10" pointer-events="none"/><path d="M 960 405 M 1110 405 M 1110 435 M 960 435" fill="none" stroke="rgb(0, 0, 0)" stroke-linecap="square" stroke-miterlimit="10" pointer-events="none"/><g fill="rgb(0, 0, 0)" font-family="Helvetica" pointer-events="none" clip-path="url(#mx-clip-966-405-144-30-0)" font-size="12px"><text x="967.5" y="424.5">parent_id</text></g><path d="M 930 435 M 960 435 M 960 465 M 930 465" fill="none" stroke="rgb(0, 0, 0)" stroke-linecap="square" stroke-miterlimit="10" pointer-events="none"/><path d="M 960 435 M 1110 435 M 1110 465 M 960 465" fill="none" stroke="rgb(0, 0, 0)" stroke-linecap="square" stroke-miterlimit="10" pointer-events="none"/><g fill="rgb(0, 0, 0)" font-family="Helvetica" pointer-events="none" clip-path="url(#mx-clip-966-435-144-30-0)" font-size="12px"><text x="967.5" y="454.5">name</text></g><path d="M 930 465 M 960 465 M 960 495 M 930 495" fill="none" stroke="rgb(0, 0, 0)" stroke-linecap="square" stroke-miterlimit="10" pointer-events="none"/><path d="M 960 465 M 1110 465 M 1110 495 M 960 495" fill="none" stroke="rgb(0, 0, 0)" stroke-linecap="square" stroke-miterlimit="10" pointer-events="none"/><g fill="rgb(0, 0, 0)" font-family="Helvetica" pointer-events="none" clip-path="url(#mx-clip-966-465-144-30-0)" font-size="12px"><text x="967.5" y="484.5">description</text></g><path d="M 930 495 M 960 495 M 960 525 M 930 525" fill="none" stroke="rgb(0, 0, 0)" stroke-linecap="square" stroke-miterlimit="10" pointer-events="none"/><path d="M 960 495 M 1110 495 M 1110 525 M 960 525" fill="none" stroke="rgb(0, 0, 0)" stroke-linecap="square" stroke-miterlimit="10" pointer-events="none"/><g fill="rgb(0, 0, 0)" font-family="Helvetica" pointer-events="none" clip-path="url(#mx-clip-966-495-144-30-0)" font-size="12px"><text x="967.5" y="514.5">created_at</text></g><path d="M 750 328 L 840 328 L 840 390 L 923.63 390" fill="none" stroke="rgb(0, 0, 0)" stroke-miterlimit="10" pointer-events="none"/><path d="M 928.88 390 L 921.88 393.5 L 923.63 390 L 921.88 386.5 Z" fill="rgb(0, 0, 0)" stroke="rgb(0, 0, 0)" stroke-miterlimit="10" pointer-events="none"/><path d="M 440 95 L 505 95 L 505 88 L 563.63 88" fill="none" stroke="rgb(0, 0, 0)" stroke-miterlimit="10" pointer-events="none"/><path d="M 568.88 88 L 561.88 91.5 L 563.63 88 L 561.88 84.5 Z" fill="rgb(0, 0, 0)" stroke="rgb(0, 0, 0)" stroke-miterlimit="10" pointer-events="none"/><path d="M 260 65 L 220 65 L 220 75 L 186.37 75" fill="none" stroke="rgb(0, 0, 0)" stroke-miterlimit="10" pointer-events="none"/><path d="M 181.12 75 L 188.12 71.5 L 186.37 75 L 188.12 78.5 Z" fill="rgb(0, 0, 0)" stroke="rgb(0, 0, 0)" stroke-miterlimit="10" pointer-events="none"/><path d="M 180 135 L 220 135 L 220 235 L 253.63 235" fill="none" stroke="rgb(0, 0, 0)" stroke-miterlimit="10" pointer-events="none"/><path d="M 258.88 235 L 251.88 238.5 L 253.63 235 L 251.88 231.5 Z" fill="rgb(0, 0, 0)" stroke="rgb(0, 0, 0)" stroke-miterlimit="10" pointer-events="none"/><path d="M 570 238 L 505 238 L 505 235 L 446.37 235" fill="none" stroke="rgb(0, 0, 0)" stroke-miterlimit="10" pointer-events="none"/><path d="M 441.12 235 L 448.12 231.5 L 446.37 235 L 448.12 238.5 Z" fill="rgb(0, 0, 0)" stroke="rgb(0, 0, 0)" stroke-miterlimit="10" pointer-events="none"/><path d="M 1020 75 L 1045 75 L 1045 45 L 1063.63 45" fill="none" stroke="rgb(0, 0, 0)" stroke-miterlimit="10" pointer-events="none"/><path d="M 1068.88 45 L 1061.88 48.5 L 1063.63 45 L 1061.88 41.5 Z" fill="rgb(0, 0, 0)" stroke="rgb(0, 0, 0)" stroke-miterlimit="10" pointer-events="none"/><path d="M 750 298 L 840 298 L 840 225 L 923.63 225" fill="none" stroke="rgb(0, 0, 0)" stroke-miterlimit="10" pointer-events="none"/><path d="M 928.88 225 L 921.88 228.5 L 923.63 225 L 921.88 221.5 Z" fill="rgb(0, 0, 0)" stroke="rgb(0, 0, 0)" stroke-miterlimit="10" pointer-events="none"/><path d="M 840 45 L 795 45 L 795 88 L 756.37 88" fill="none" stroke="rgb(0, 0, 0)" stroke-miterlimit="10" pointer-events="none"/><path d="M 751.12 88 L 758.12 84.5 L 756.37 88 L 758.12 91.5 Z" fill="rgb(0, 0, 0)" stroke="rgb(0, 0, 0)" stroke-miterlimit="10" pointer-events="none"/></g></svg>